<svg xmlns="http://www.w3.org/2000/svg" height="40px" viewBox="0 -960 960 960" width="40px" fill="#e3e3e3"><path d="M180.5-180.5Q160-201 160-230.67q0-29.66 20.5-50.16 20.5-20.5 50.17-20.5 29.66 0 50.16 20.5 20.5 20.5 20.5 50.16 0 29.67-20.5 50.17T230.67-160q-29.67 0-50.17-20.5Zm0-249.33Q160-450.33 160-480t20.5-50.17q20.5-20.5 50.17-20.5 29.66 0 50.16 20.5 20.5 20.5 20.5 50.17t-20.5 50.17q-20.5 20.5-50.16 20.5-29.67 0-50.17-20.5Zm0-249.34q-20.5-20.5-20.5-50.16 0-29.67 20.5-50.17t50.17-20.5q29.66 0 50.16 20.5 20.5 20.5 20.5 50.17 0 29.66-20.5 50.16-20.5 20.5-50.16 20.5-29.67 0-50.17-20.5Zm249.33 0q-20.5-20.5-20.5-50.16 0-29.67 20.5-50.17T480-800q29.67 0 50.17 20.5t20.5 50.17q0 29.66-20.5 50.16-20.5 20.5-50.17 20.5t-50.17-20.5Zm249.34 0q-20.5-20.5-20.5-50.16 0-29.67 20.5-50.17t50.16-20.5q29.67 0 50.17 20.5t20.5 50.17q0 29.66-20.5 50.16-20.5 20.5-50.17 20.5-29.66 0-50.16-20.5Zm-249 249Q409.33-451 409.33-480t20.84-49.83Q451-550.67 480-550.67t49.83 20.84Q550.67-509 550.67-480t-20.84 49.83Q509-409.33 480-409.33t-49.83-20.84ZM520-160v-123l221-220q9-9 20-13t22-4q12 0 23 4.5t20 13.5l37 37q8.67 9 12.83 20 4.17 11 4.17 22t-4.33 22.5q-4.34 11.5-13.34 20.5L643-160H520Zm300-263-37-37 37 37ZM580-220h38l121-122-18-19-19-18-122 121v38Zm141-141-19-18 37 37-18-19Z"/></svg>