<svg xmlns="http://www.w3.org/2000/svg" height="40px" viewBox="0 -960 960 960" width="40px" fill="#e3e3e3"><path d="M78.67-320v-100q0-34.67 17.83-63.17T145.33-526q60.67-27.67 124-44.17 63.34-16.5 129.34-16.5 49 0 97.33 9.34Q544.33-568 591-551q-13 12-24.33 25.17-11.34 13.16-20.34 28.83-36-12-72.66-17.5-36.67-5.5-75-5.5-58.67 0-115 14.5Q227.33-491 173.33-466q-13 6.33-20.5 18.67-7.5 12.33-7.5 27.33v33.33h363q-1.33 16.67-.66 33.34.66 16.66 2.66 33.33H78.67Zm320-66.67ZM290-685.33Q245.33-730 245.33-794T290-902.67q44.67-44.66 108.67-44.66t108.66 44.66Q552-858 552-794t-44.67 108.67q-44.66 44.66-108.66 44.66T290-685.33Zm170.17-47.17q25.16-25.17 25.16-61.5t-25.16-61.5q-25.17-25.17-61.5-25.17-36.34 0-61.5 25.17Q312-830.33 312-794t25.17 61.5q25.16 25.17 61.5 25.17 36.33 0 61.5-25.17Zm-61.5-61.5Zm328.66 108.67q-44.66 44.66-108.66 44.66-12.34 0-26-1.5-13.67-1.5-25.34-5.83 27-30 39.17-68 12.17-38 12.17-78t-12.84-77.67Q593-909.33 567.33-940q12.67-4.33 25.34-5.83 12.66-1.5 26-1.5 64 0 108.66 44.66Q772-858 772-794t-44.67 108.67Zm39.34 518.66q-80.34 0-136.84-56.5T573.33-360q0-80.67 56.5-137t136.84-56.33q80.66 0 137 56.33Q960-440.67 960-360q0 80.33-56.33 136.83-56.34 56.5-137 56.5ZM732-275.33 868.33-412 845-435.33l-113 113-56.33-57-23.34 23.66L732-275.33Z"/></svg>